<?xml version="1.0" encoding="iso-8859-1"?>
<!-- Generator: Adobe Illustrator 16.0.0, SVG Export Plug-In . SVG Version: 6.00 Build 0)  -->
<!DOCTYPE svg PUBLIC "-//W3C//DTD SVG 1.1//EN" "http://www.w3.org/Graphics/SVG/1.1/DTD/svg11.dtd">
<svg version="1.1" id="Capa_1" xmlns="http://www.w3.org/2000/svg" xmlns:xlink="http://www.w3.org/1999/xlink" x="0px" y="0px"
	 width="950px" height="950px" viewBox="0 0 950 950" style="enable-background:new 0 0 950 950;" xml:space="preserve">
<g>
	<g>
		<path d="M910.289,810.471H39.712c-18.192,0-32.939,14.746-32.939,32.938v73.652C6.773,935.254,21.521,950,39.712,950h870.577
			c18.191,0,32.938-14.746,32.938-32.939v-73.652C943.227,825.217,928.48,810.471,910.289,810.471z"/>
		<path d="M669.023,0H278.7C256.05,0,237.69,18.361,237.69,41.009v392.039h-79.647c-16.901,0-25,20.755-12.567,32.201
			l298.379,274.728c17.602,16.207,44.689,16.207,62.291,0l298.379-274.728c12.434-11.447,4.334-32.201-12.566-32.201h-79.648V43.287
			C712.311,19.38,692.93,0,669.023,0z"/>
	</g>
</g>
<g>
</g>
<g>
</g>
<g>
</g>
<g>
</g>
<g>
</g>
<g>
</g>
<g>
</g>
<g>
</g>
<g>
</g>
<g>
</g>
<g>
</g>
<g>
</g>
<g>
</g>
<g>
</g>
<g>
</g>
</svg>
